<svg version="1.1" id="Layer_1" xmlns="http://www.w3.org/2000/svg" xmlns:xlink="http://www.w3.org/1999/xlink" x="0px" y="0px"
	 width="100%" viewBox="0 0 1224 1224" enable-background="new 0 0 1224 1224" xml:space="preserve">
<path fill="#33425B" opacity="1.000000" stroke="none" 
	d="
M1225.000000,705.000000 
	C1225.000000,709.689270 1225.000000,714.378479 1224.641479,719.712036 
	C1222.715576,734.178772 1219.150146,747.433289 1213.279053,760.077942 
	C1199.011108,790.805908 1176.907471,815.359802 1151.515137,837.012817 
	C1101.223022,879.898438 1044.454590,912.052856 982.653198,934.997314 
	C921.402954,957.737244 858.169739,972.717285 792.994812,978.657104 
	C780.441223,979.801208 767.636963,980.321045 755.120667,979.201721 
	C740.014343,977.850769 726.443298,970.832703 713.459839,963.266418 
	C669.971375,937.922668 634.118774,904.001953 603.234070,864.541138 
	C581.155640,836.331787 567.027283,805.815308 566.792175,768.631714 
	C566.280823,687.766296 568.192444,606.994263 572.442017,526.278503 
	C574.858887,480.371948 578.172180,434.491211 582.229126,388.700500 
	C584.635010,361.545197 589.154053,334.570557 593.040894,307.560425 
	C593.601562,303.664001 593.111694,300.643372 591.316101,297.236572 
	C577.478455,270.982574 570.194519,243.375290 574.964355,213.483276 
	C578.918701,188.702087 593.482910,173.208603 617.550232,167.805710 
	C656.155579,159.139160 695.362732,156.373276 734.731262,157.668549 
	C775.512024,159.010284 816.262329,161.619385 856.982300,164.330093 
	C878.886719,165.788269 901.101990,166.697006 922.484375,171.167007 
	C1016.934387,190.911743 1084.841064,244.766556 1124.199707,333.226196 
	C1140.051025,368.852325 1141.510620,405.376923 1126.097046,441.860138 
	C1115.815430,466.195892 1099.774170,486.460754 1081.339722,505.030640 
	C1077.416138,508.982910 1077.793213,509.583923 1082.138794,512.936096 
	C1097.145020,524.511536 1112.759033,535.459045 1126.705566,548.215759 
	C1157.678101,576.546204 1181.486816,610.691895 1203.236938,646.369507 
	C1213.031372,662.435852 1221.138672,679.043762 1223.604004,697.954163 
	C1223.912842,700.323181 1224.527222,702.652344 1225.000000,705.000000 
M740.424255,734.582214 
	C740.555664,749.238159 740.866455,763.895935 740.717957,778.549011 
	C740.668213,783.455627 742.684509,784.595581 747.016113,784.230225 
	C760.286804,783.110962 773.597107,782.410889 786.844299,781.073975 
	C830.136902,776.705017 872.846802,769.081604 914.623901,756.792969 
	C940.856384,749.076721 966.491577,739.792969 989.297058,724.166016 
	C1001.275635,715.957947 1011.746521,706.333496 1017.262695,692.447937 
	C1022.605103,678.999878 1020.213989,669.559021 1007.888733,661.966370 
	C998.632080,656.264160 988.629822,651.377686 978.385681,647.747253 
	C948.312866,637.089966 916.860352,632.174133 885.490906,627.125183 
	C883.371948,626.784058 880.873657,627.510498 878.801941,628.354553 
	C834.759583,646.297485 790.767883,664.365051 746.710449,682.270813 
	C743.305542,683.654663 741.825989,685.342957 741.760925,689.156860 
	C741.507751,703.977661 740.902039,718.792480 740.424255,734.582214 
M818.815613,348.294495 
	C806.275085,349.889496 793.740112,351.530792 781.190430,353.050476 
	C777.572754,353.488586 775.586487,355.171326 774.894287,358.859375 
	C773.760315,364.900757 771.715759,370.815613 771.050049,376.892822 
	C768.169128,403.190063 765.600769,429.522156 763.039124,455.853271 
	C762.539062,460.993591 763.969971,461.930084 769.372498,459.966217 
	C802.336060,447.983551 835.479126,436.453613 868.139343,423.690430 
	C893.862366,413.638214 918.907043,401.872131 941.252502,385.237701 
	C948.903442,379.542145 956.083740,373.259033 959.507507,363.931580 
	C962.211060,356.566315 959.612244,351.281494 951.927368,349.688904 
	C946.278564,348.518250 940.388428,348.180511 934.596680,348.094879 
	C918.784363,347.861084 902.966919,347.902649 887.151733,347.935852 
	C864.684143,347.983002 842.216736,348.120117 818.815613,348.294495 
z"/>
<path fill="#FFFFFF" opacity="1.000000" stroke="none" 
	d="
M1225.000000,749.000000 
	C1225.000000,907.635498 1225.000000,1066.270996 1225.000000,1224.953247 
	C817.111328,1224.953247 409.222656,1224.953247 1.000000,1224.953247 
	C1.000000,1085.972168 1.000000,946.944031 1.368724,807.520996 
	C2.161846,807.771606 2.707223,808.367920 2.992466,809.069885 
	C7.160198,819.327148 10.624518,829.933777 15.570748,839.798157 
	C26.584873,861.763794 41.812275,880.932434 58.524418,898.714539 
	C71.596725,912.623779 85.715912,925.612610 99.991180,938.312012 
	C118.912476,955.144531 139.718430,969.446472 162.703232,980.232178 
	C176.750977,986.824158 191.470444,991.683899 207.287460,990.908081 
	C218.510254,990.357483 229.732010,989.329224 240.887375,987.966675 
	C258.103455,985.863892 275.388855,983.968262 292.419006,980.778870 
	C327.286346,974.248962 361.641022,965.466187 395.451355,954.689392 
	C431.018860,943.352417 465.107025,928.569641 497.866241,910.629089 
	C526.311401,895.051025 553.687317,877.906006 579.030334,857.606262 
	C581.640869,855.515381 584.476318,853.705200 586.558899,852.225464 
	C598.087646,866.453857 608.323242,880.613098 620.155396,893.281006 
	C633.295959,907.349976 647.549011,920.444702 661.940796,933.264038 
	C680.851807,950.109009 701.662964,964.401794 724.640442,975.202271 
	C738.999756,981.951843 754.057617,986.892273 770.215759,985.891296 
	C784.234131,985.022949 798.241699,983.662354 812.181885,981.936462 
	C826.929077,980.110657 841.753784,978.349609 856.254333,975.216919 
	C881.811646,969.695496 907.251465,963.548279 932.551941,956.941162 
	C965.877991,948.238098 998.295288,936.681213 1029.081787,921.228699 
	C1051.333252,910.060242 1073.171997,897.936157 1094.488159,885.067627 
	C1128.287598,864.662964 1159.432251,840.791321 1185.661499,810.914795 
	C1201.243774,793.165894 1214.305786,773.951782 1222.673462,751.732666 
	C1223.070068,750.679138 1224.207520,749.904480 1225.000000,749.000000 
z"/>
<path fill="#FFFFFF" opacity="1.000000" stroke="none" 
	d="
M1.000000,583.000000 
	C1.000000,389.032227 1.000000,195.064484 1.000000,1.096715 
	C1.134400,1.064477 1.268801,1.003977 1.403201,1.003976 
	C409.168732,0.999991 816.934265,1.000000 1225.000000,1.000000 
	C1225.000000,225.362625 1225.000000,449.725372 1224.643066,674.490723 
	C1223.912964,674.587402 1223.337158,674.355042 1223.195557,673.964966 
	C1216.605103,655.823181 1205.791626,639.998535 1195.466064,623.952515 
	C1182.445068,603.717651 1168.224487,584.378784 1152.091553,566.425903 
	C1136.827393,549.439697 1120.417114,533.788147 1102.143677,520.108398 
	C1096.928467,516.204224 1091.504883,512.578491 1086.112549,508.779755 
	C1088.475342,505.876312 1090.197021,503.415222 1092.258545,501.282349 
	C1108.561523,484.414459 1121.945679,465.603027 1131.065674,443.873901 
	C1140.299683,421.872955 1143.901245,399.164673 1141.137451,375.321960 
	C1138.032593,348.535858 1127.930786,324.373016 1114.582886,301.383179 
	C1100.519409,277.161072 1083.884033,254.879929 1062.719360,236.319244 
	C1053.508423,228.241547 1044.186890,220.207901 1034.296631,213.004166 
	C1013.503662,197.859207 990.774048,186.166016 966.595825,177.373230 
	C946.284668,169.986725 925.386292,164.671906 903.942139,162.183350 
	C886.366455,160.143692 868.647034,159.333771 850.988403,158.019394 
	C837.123352,156.987366 823.260925,155.898529 809.384277,155.049332 
	C791.024597,153.925827 772.659790,152.387100 754.283325,152.161987 
	C730.171814,151.866592 706.045898,152.633179 681.928101,153.053131 
	C677.468567,153.130768 672.979126,153.471741 668.570312,154.135269 
	C651.747803,156.667053 634.922546,159.205078 618.154968,162.072159 
	C598.902527,165.364120 584.472839,175.403427 575.862183,193.288834 
	C566.106689,213.552063 566.474609,234.686096 570.589111,256.043518 
	C573.558350,271.456238 579.080444,286.017548 586.339966,299.957611 
	C587.437195,302.064636 587.580383,305.028137 587.238403,307.465515 
	C585.310486,321.206818 583.045776,334.900391 581.008179,348.626923 
	C580.031494,355.206818 579.301880,361.823334 578.460388,368.423279 
	C576.056335,362.512451 574.568054,356.512299 572.718323,350.625732 
	C566.850464,331.951569 557.818542,314.784149 547.606750,298.167145 
	C530.136719,269.739227 508.249542,245.283676 481.817749,224.950607 
	C458.896545,207.318085 433.896942,193.461533 406.762329,183.266312 
	C376.827393,172.018921 345.875824,166.528015 314.076752,164.985596 
	C302.659454,164.431793 291.244019,163.772629 279.844849,162.929977 
	C263.678314,161.734924 247.537521,160.183853 231.366974,159.053070 
	C218.638138,158.162964 205.875122,157.030090 193.137573,157.145004 
	C164.392258,157.404312 135.604446,157.576874 106.930092,159.344559 
	C89.693794,160.407120 72.597466,164.169785 55.514122,167.153488 
	C40.753510,169.731537 28.273355,176.528275 19.407681,189.019333 
	C5.279020,208.925537 4.097018,231.356628 7.386847,254.368820 
	C9.941410,272.237885 15.995858,289.076752 24.406504,305.090973 
	C25.501961,307.176758 25.551426,310.166718 25.188354,312.604279 
	C23.289753,325.350861 20.752739,338.009460 19.108856,350.785004 
	C17.337259,364.553101 16.285456,378.414551 14.960259,392.239166 
	C13.288070,409.683563 11.523317,427.120636 10.050090,444.582123 
	C8.853411,458.765778 7.913310,472.973877 7.065788,487.183472 
	C5.940902,506.043365 4.907797,524.910339 4.045774,543.783813 
	C3.500201,555.728760 3.389914,567.693359 2.921077,579.642761 
	C2.876254,580.785156 1.668095,581.882019 1.000000,583.000000 
z"/>
<path fill="#EAEAF3" opacity="1.000000" stroke="none" 
	d="
M1.000000,583.468628 
	C1.668095,581.882019 2.876254,580.785156 2.921077,579.642761 
	C3.389914,567.693359 3.500201,555.728760 4.045774,543.783813 
	C4.907797,524.910339 5.940902,506.043365 7.065788,487.183472 
	C7.913310,472.973877 8.853411,458.765778 10.050090,444.582123 
	C11.523317,427.120636 13.288070,409.683563 14.960259,392.239166 
	C16.285456,378.414551 17.337259,364.553101 19.108856,350.785004 
	C20.752739,338.009460 23.289753,325.350861 25.188354,312.604279 
	C25.551426,310.166718 25.501961,307.176758 24.406504,305.090973 
	C15.995858,289.076752 9.941410,272.237885 7.386847,254.368820 
	C4.097018,231.356628 5.279020,208.925537 19.407681,189.019333 
	C28.273355,176.528275 40.753510,169.731537 55.514122,167.153488 
	C72.597466,164.169785 89.693794,160.407120 106.930092,159.344559 
	C135.604446,157.576874 164.392258,157.404312 193.137573,157.145004 
	C205.875122,157.030090 218.638138,158.162964 231.366974,159.053070 
	C247.537521,160.183853 263.678314,161.734924 279.844849,162.929977 
	C291.244019,163.772629 302.659454,164.431793 314.076752,164.985596 
	C345.875824,166.528015 376.827393,172.018921 406.762329,183.266312 
	C433.896942,193.461533 458.896545,207.318085 481.817749,224.950607 
	C508.249542,245.283676 530.136719,269.739227 547.606750,298.167145 
	C557.818542,314.784149 566.850464,331.951569 572.718323,350.625732 
	C574.568054,356.512299 576.056335,362.512451 578.460388,368.423279 
	C579.301880,361.823334 580.031494,355.206818 581.008179,348.626923 
	C583.045776,334.900391 585.310486,321.206818 587.238403,307.465515 
	C587.580383,305.028137 587.437195,302.064636 586.339966,299.957611 
	C579.080444,286.017548 573.558350,271.456238 570.589111,256.043518 
	C566.474609,234.686096 566.106689,213.552063 575.862183,193.288834 
	C584.472839,175.403427 598.902527,165.364120 618.154968,162.072159 
	C634.922546,159.205078 651.747803,156.667053 668.570312,154.135269 
	C672.979126,153.471741 677.468567,153.130768 681.928101,153.053131 
	C706.045898,152.633179 730.171814,151.866592 754.283325,152.161987 
	C772.659790,152.387100 791.024597,153.925827 809.384277,155.049332 
	C823.260925,155.898529 837.123352,156.987366 850.988403,158.019394 
	C868.647034,159.333771 886.366455,160.143692 903.942139,162.183350 
	C925.386292,164.671906 946.284668,169.986725 966.595825,177.373230 
	C990.774048,186.166016 1013.503662,197.859207 1034.296631,213.004166 
	C1044.186890,220.207901 1053.508423,228.241547 1062.719360,236.319244 
	C1083.884033,254.879929 1100.519409,277.161072 1114.582886,301.383179 
	C1127.930786,324.373016 1138.032593,348.535858 1141.137451,375.321960 
	C1143.901245,399.164673 1140.299683,421.872955 1131.065674,443.873901 
	C1121.945679,465.603027 1108.561523,484.414459 1092.258545,501.282349 
	C1090.197021,503.415222 1088.475342,505.876312 1086.112549,508.779755 
	C1091.504883,512.578491 1096.928467,516.204224 1102.143677,520.108398 
	C1120.417114,533.788147 1136.827393,549.439697 1152.091553,566.425903 
	C1168.224487,584.378784 1182.445068,603.717651 1195.466064,623.952515 
	C1205.791626,639.998535 1216.605103,655.823181 1223.195557,673.964966 
	C1223.337158,674.355042 1223.912964,674.587402 1224.643066,674.946655 
	C1225.000000,675.444458 1225.000000,675.888916 1224.837158,676.761353 
	C1224.782959,677.459595 1224.891479,677.729797 1225.000000,678.000000 
	C1225.000000,686.687561 1225.000000,695.375183 1225.000000,704.531372 
	C1224.527222,702.652344 1223.912842,700.323181 1223.604004,697.954163 
	C1221.138672,679.043762 1213.031372,662.435852 1203.236938,646.369507 
	C1181.486816,610.691895 1157.678101,576.546204 1126.705566,548.215759 
	C1112.759033,535.459045 1097.145020,524.511536 1082.138794,512.936096 
	C1077.793213,509.583923 1077.416138,508.982910 1081.339722,505.030640 
	C1099.774170,486.460754 1115.815430,466.195892 1126.097046,441.860138 
	C1141.510620,405.376923 1140.051025,368.852325 1124.199707,333.226196 
	C1084.841064,244.766556 1016.934387,190.911743 922.484375,171.167007 
	C901.101990,166.697006 878.886719,165.788269 856.982300,164.330093 
	C816.262329,161.619385 775.512024,159.010284 734.731262,157.668549 
	C695.362732,156.373276 656.155579,159.139160 617.550232,167.805710 
	C593.482910,173.208603 578.918701,188.702087 574.964355,213.483276 
	C570.194519,243.375290 577.478455,270.982574 591.316101,297.236572 
	C593.111694,300.643372 593.601562,303.664001 593.040894,307.560425 
	C589.154053,334.570557 584.635010,361.545197 582.229126,388.700500 
	C578.172180,434.491211 574.858887,480.371948 572.442017,526.278503 
	C568.192444,606.994263 566.280823,687.766296 566.792175,768.631714 
	C567.027283,805.815308 581.155640,836.331787 603.234070,864.541138 
	C634.118774,904.001953 669.971375,937.922668 713.459839,963.266418 
	C726.443298,970.832703 740.014343,977.850769 755.120667,979.201721 
	C767.636963,980.321045 780.441223,979.801208 792.994812,978.657104 
	C858.169739,972.717285 921.402954,957.737244 982.653198,934.997314 
	C1044.454590,912.052856 1101.223022,879.898438 1151.515137,837.012817 
	C1176.907471,815.359802 1199.011108,790.805908 1213.279053,760.077942 
	C1219.150146,747.433289 1222.715576,734.178772 1224.641479,720.178223 
	C1225.000000,728.354248 1225.000000,736.708496 1224.839111,745.629456 
	C1224.607788,746.298584 1224.458130,746.466797 1224.479736,746.492859 
	C1224.633423,746.678223 1224.822388,746.834473 1225.000000,747.000000 
	C1225.000000,747.444458 1225.000000,747.888916 1225.000000,748.666687 
	C1224.207520,749.904480 1223.070068,750.679138 1222.673462,751.732666 
	C1214.305786,773.951782 1201.243774,793.165894 1185.661499,810.914795 
	C1159.432251,840.791321 1128.287598,864.662964 1094.488159,885.067627 
	C1073.171997,897.936157 1051.333252,910.060242 1029.081787,921.228699 
	C998.295288,936.681213 965.877991,948.238098 932.551941,956.941162 
	C907.251465,963.548279 881.811646,969.695496 856.254333,975.216919 
	C841.753784,978.349609 826.929077,980.110657 812.181885,981.936462 
	C798.241699,983.662354 784.234131,985.022949 770.215759,985.891296 
	C754.057617,986.892273 738.999756,981.951843 724.640442,975.202271 
	C701.662964,964.401794 680.851807,950.109009 661.940796,933.264038 
	C647.549011,920.444702 633.295959,907.349976 620.155396,893.281006 
	C608.323242,880.613098 598.087646,866.453857 586.558899,852.225464 
	C584.476318,853.705200 581.640869,855.515381 579.030334,857.606262 
	C553.687317,877.906006 526.311401,895.051025 497.866241,910.629089 
	C465.107025,928.569641 431.018860,943.352417 395.451355,954.689392 
	C361.641022,965.466187 327.286346,974.248962 292.419006,980.778870 
	C275.388855,983.968262 258.103455,985.863892 240.887375,987.966675 
	C229.732010,989.329224 218.510254,990.357483 207.287460,990.908081 
	C191.470444,991.683899 176.750977,986.824158 162.703232,980.232178 
	C139.718430,969.446472 118.912476,955.144531 99.991180,938.312012 
	C85.715912,925.612610 71.596725,912.623779 58.524418,898.714539 
	C41.812275,880.932434 26.584873,861.763794 15.570748,839.798157 
	C10.624518,829.933777 7.160198,819.327148 2.992466,809.069885 
	C2.707223,808.367920 2.161846,807.771606 1.368724,807.063110 
	C1.000000,805.611084 1.000000,804.222229 1.162790,802.322021 
	C1.217048,801.540466 1.108515,801.270264 0.999992,801.000000 
	C1.000000,736.979126 1.000000,672.958191 1.160940,608.370483 
	C1.392186,607.701294 1.541715,607.533142 1.520053,607.507019 
	C1.366344,607.321716 1.177591,607.165466 0.999998,607.000000 
	C1.000000,599.312439 1.000000,591.624817 1.000000,583.468628 
M503.117645,901.706421 
	C531.616272,885.486084 559.054749,867.721008 584.304871,846.419800 
	C583.225098,844.550903 582.312683,842.975586 581.403809,841.398254 
	C574.153320,828.814697 567.084473,816.010193 565.059265,801.455994 
	C563.319519,788.953735 562.393250,776.269775 562.115601,763.643921 
	C560.624084,695.804199 562.708984,628.017639 565.860291,560.258118 
	C566.048645,556.207642 565.647522,552.950867 562.078979,550.241333 
	C548.040833,539.582214 534.233154,528.619446 520.192871,517.963135 
	C515.800293,514.629272 515.611328,514.136841 519.264526,510.042023 
	C527.241516,501.100983 535.620178,492.447693 542.871948,482.942322 
	C576.522034,438.834991 584.386658,390.731537 562.696960,339.158630 
	C540.514099,286.413208 505.054626,244.466019 456.539398,213.921387 
	C419.174622,190.396973 378.510223,175.792755 334.426025,172.153946 
	C292.591583,168.700836 250.682327,166.037109 208.768723,163.691696 
	C161.935760,161.070999 115.162140,161.573685 68.811020,170.073120 
	C57.378380,172.169556 45.636738,173.673325 35.737057,180.524109 
	C20.133823,191.321838 13.770010,207.248749 12.037927,225.339706 
	C9.516077,251.679428 15.824102,276.308563 28.000443,299.466339 
	C30.902849,304.986328 32.124573,309.938782 30.199501,315.904999 
	C29.034916,319.514313 28.675453,323.397369 28.094484,327.178986 
	C20.143282,378.934387 16.365694,431.102234 13.153479,483.302002 
	C10.851077,520.716919 9.095787,558.172424 7.641987,595.630981 
	C5.147332,659.908264 3.191240,724.200012 5.938917,788.533386 
	C6.574151,803.406677 9.952203,817.427673 16.647949,830.747009 
	C28.189167,853.705200 43.514217,873.969299 60.660477,892.914551 
	C87.409470,922.470093 117.069504,948.586548 151.786423,968.545410 
	C172.097702,980.222473 193.405777,987.117065 217.485291,984.920227 
	C246.539017,982.269592 275.436157,978.873840 303.996338,972.936096 
	C373.427917,958.501221 440.502289,937.420410 503.117645,901.706421 
M549.153137,483.671112 
	C540.983948,493.657532 532.814697,503.643921 524.713989,513.546570 
	C538.255188,524.024109 551.912292,534.591370 565.677490,545.242310 
	C567.688782,511.417084 569.688965,477.777222 571.561523,446.285431 
	C564.821411,457.543457 557.181946,470.303650 549.153137,483.671112 
z"/>
<path fill="#FFFFFF" opacity="1.000000" stroke="none" 
	d="
M0.999992,801.250000 
	C1.108515,801.270264 1.217048,801.540466 1.162790,801.905396 
	C1.000000,802.000000 1.000000,801.500000 0.999992,801.250000 
z"/>
<path fill="#FFFFFF" opacity="1.000000" stroke="none" 
	d="
M1225.000000,746.750000 
	C1224.822388,746.834473 1224.633423,746.678223 1224.479736,746.492859 
	C1224.458130,746.466797 1224.607788,746.298584 1224.839111,746.098083 
	C1225.000000,746.000000 1225.000000,746.500000 1225.000000,746.750000 
z"/>
<path fill="#FFFFFF" opacity="1.000000" stroke="none" 
	d="
M1225.000000,677.750000 
	C1224.891479,677.729797 1224.782959,677.459595 1224.837158,677.094727 
	C1225.000000,677.000000 1225.000000,677.500000 1225.000000,677.750000 
z"/>
<path fill="#FFFFFF" opacity="1.000000" stroke="none" 
	d="
M0.999998,607.250000 
	C1.177591,607.165466 1.366344,607.321716 1.520053,607.507019 
	C1.541715,607.533142 1.392186,607.701294 1.160940,607.901855 
	C1.000000,608.000000 1.000000,607.500000 0.999998,607.250000 
z"/>
<path fill="#EAEBF3" opacity="1.000000" stroke="none" 
	d="
M740.425903,734.095825 
	C740.902039,718.792480 741.507751,703.977661 741.760925,689.156860 
	C741.825989,685.342957 743.305542,683.654663 746.710449,682.270813 
	C790.767883,664.365051 834.759583,646.297485 878.801941,628.354553 
	C880.873657,627.510498 883.371948,626.784058 885.490906,627.125183 
	C916.860352,632.174133 948.312866,637.089966 978.385681,647.747253 
	C988.629822,651.377686 998.632080,656.264160 1007.888733,661.966370 
	C1020.213989,669.559021 1022.605103,678.999878 1017.262695,692.447937 
	C1011.746521,706.333496 1001.275635,715.957947 989.297058,724.166016 
	C966.491577,739.792969 940.856384,749.076721 914.623901,756.792969 
	C872.846802,769.081604 830.136902,776.705017 786.844299,781.073975 
	C773.597107,782.410889 760.286804,783.110962 747.016113,784.230225 
	C742.684509,784.595581 740.668213,783.455627 740.717957,778.549011 
	C740.866455,763.895935 740.555664,749.238159 740.425903,734.095825 
M893.577881,633.986145 
	C889.255249,633.873962 884.393127,632.405090 880.699219,633.874084 
	C859.733337,642.211609 839.138306,651.476318 818.240112,659.991272 
	C795.961731,669.068604 773.489990,677.671692 751.092957,686.457153 
	C748.396484,687.514893 746.891968,688.924011 746.888855,692.278259 
	C746.881104,700.564880 746.101013,708.849426 746.045593,717.137573 
	C745.913086,736.960754 746.015015,756.785645 746.048340,776.609741 
	C746.049438,777.232239 746.337463,777.854187 746.629272,779.031067 
	C749.962708,778.681641 753.180359,778.279236 756.409424,778.017273 
	C769.435791,776.960266 782.515869,776.364502 795.481140,774.807556 
	C810.554932,772.997498 825.552856,770.503296 840.541809,768.049866 
	C869.168152,763.364258 897.401123,756.972778 924.980774,747.882202 
	C946.173767,740.896729 966.885864,732.834656 985.516479,720.248962 
	C996.668152,712.715576 1006.407166,703.865356 1011.934021,691.187927 
	C1016.160217,681.493896 1014.406067,672.635925 1005.264160,666.416809 
	C990.829102,656.596802 974.649475,651.153320 958.052063,647.174194 
	C937.007751,642.129089 915.663208,638.335938 893.577881,633.986145 
z"/>
<path fill="#EAEBF3" opacity="1.000000" stroke="none" 
	d="
M819.282410,348.256653 
	C842.216736,348.120117 864.684143,347.983002 887.151733,347.935852 
	C902.966919,347.902649 918.784363,347.861084 934.596680,348.094879 
	C940.388428,348.180511 946.278564,348.518250 951.927368,349.688904 
	C959.612244,351.281494 962.211060,356.566315 959.507507,363.931580 
	C956.083740,373.259033 948.903442,379.542145 941.252502,385.237701 
	C918.907043,401.872131 893.862366,413.638214 868.139343,423.690430 
	C835.479126,436.453613 802.336060,447.983551 769.372498,459.966217 
	C763.969971,461.930084 762.539062,460.993591 763.039124,455.853271 
	C765.600769,429.522156 768.169128,403.190063 771.050049,376.892822 
	C771.715759,370.815613 773.760315,364.900757 774.894287,358.859375 
	C775.586487,355.171326 777.572754,353.488586 781.190430,353.050476 
	C793.740112,351.530792 806.275085,349.889496 819.282410,348.256653 
M769.055298,448.622467 
	C769.151062,450.327789 769.246826,452.033112 769.364441,454.127533 
	C771.531860,453.539429 772.985840,453.262390 774.355042,452.756134 
	C805.334961,441.301666 836.495850,430.304871 867.217896,418.195129 
	C891.955505,408.444305 916.240234,397.390930 937.509583,381.050964 
	C943.415955,376.513489 948.704346,370.718262 952.933716,364.575684 
	C957.384766,358.111053 954.597107,354.165436 946.471069,354.016083 
	C925.019897,353.621857 903.563538,352.923126 882.115540,353.100952 
	C857.703613,353.303314 833.290649,354.127136 808.894653,355.096771 
	C800.503357,355.430298 792.137939,356.863953 783.819885,358.171814 
	C782.360046,358.401337 780.561951,360.273315 780.017700,361.782623 
	C778.676453,365.501709 777.522461,369.401154 777.089844,373.316101 
	C774.911743,393.028900 773.002563,412.771332 770.966736,432.500000 
	C770.441528,437.589874 769.800049,442.667725 769.055298,448.622467 
z"/>
<path fill="#33425B" opacity="1.000000" stroke="none" 
	d="
M502.785065,901.865601 
	C440.502289,937.420410 373.427917,958.501221 303.996338,972.936096 
	C275.436157,978.873840 246.539017,982.269592 217.485291,984.920227 
	C193.405777,987.117065 172.097702,980.222473 151.786423,968.545410 
	C117.069504,948.586548 87.409470,922.470093 60.660477,892.914551 
	C43.514217,873.969299 28.189167,853.705200 16.647949,830.747009 
	C9.952203,817.427673 6.574151,803.406677 5.938917,788.533386 
	C3.191240,724.200012 5.147332,659.908264 7.641987,595.630981 
	C9.095787,558.172424 10.851077,520.716919 13.153479,483.302002 
	C16.365694,431.102234 20.143282,378.934387 28.094484,327.178986 
	C28.675453,323.397369 29.034916,319.514313 30.199501,315.904999 
	C32.124573,309.938782 30.902849,304.986328 28.000443,299.466339 
	C15.824102,276.308563 9.516077,251.679428 12.037927,225.339706 
	C13.770010,207.248749 20.133823,191.321838 35.737057,180.524109 
	C45.636738,173.673325 57.378380,172.169556 68.811020,170.073120 
	C115.162140,161.573685 161.935760,161.070999 208.768723,163.691696 
	C250.682327,166.037109 292.591583,168.700836 334.426025,172.153946 
	C378.510223,175.792755 419.174622,190.396973 456.539398,213.921387 
	C505.054626,244.466019 540.514099,286.413208 562.696960,339.158630 
	C584.386658,390.731537 576.522034,438.834991 542.871948,482.942322 
	C535.620178,492.447693 527.241516,501.100983 519.264526,510.042023 
	C515.611328,514.136841 515.800293,514.629272 520.192871,517.963135 
	C534.233154,528.619446 548.040833,539.582214 562.078979,550.241333 
	C565.647522,552.950867 566.048645,556.207642 565.860291,560.258118 
	C562.708984,628.017639 560.624084,695.804199 562.115601,763.643921 
	C562.393250,776.269775 563.319519,788.953735 565.059265,801.455994 
	C567.084473,816.010193 574.153320,828.814697 581.403809,841.398254 
	C582.312683,842.975586 583.225098,844.550903 584.304871,846.419800 
	C559.054749,867.721008 531.616272,885.486084 502.785065,901.865601 
M409.341675,650.176880 
	C381.048279,644.162964 352.764465,638.102844 324.442108,632.228455 
	C322.326416,631.789734 319.737488,632.195068 317.700836,633.024170 
	C273.027527,651.209961 228.385864,669.473999 183.823746,687.929871 
	C182.076645,688.653442 180.080673,691.399231 180.044464,693.239075 
	C179.454361,723.214233 179.238480,753.196655 178.726501,783.173828 
	C178.642822,788.073914 180.377472,789.668945 185.145096,789.244446 
	C198.412979,788.063049 211.732391,787.418152 224.980209,786.061157 
	C268.937988,781.558289 312.303070,773.830505 354.689392,761.145569 
	C380.266663,753.491089 405.218018,744.308594 427.454163,729.065369 
	C439.579437,720.753418 450.129181,710.946289 455.528534,696.804260 
	C460.494171,683.798279 457.638855,675.071228 446.257294,666.930237 
	C435.270813,659.071838 422.774536,654.572327 409.341675,650.176880 
M214.970703,462.449646 
	C246.008545,450.984711 277.247162,440.028992 308.021332,427.895325 
	C333.106689,418.004578 357.677063,406.656891 379.205475,390.064056 
	C385.652863,385.094818 391.557953,378.759674 395.921936,371.910095 
	C401.960144,362.432678 398.057556,355.538635 386.938721,353.996521 
	C382.013062,353.313385 376.992462,353.151184 372.009888,353.071655 
	C354.031464,352.784729 336.042603,352.910217 318.072937,352.370758 
	C285.537720,351.394073 253.154236,352.266418 220.957932,357.679291 
	C215.543671,358.589569 213.011932,360.901306 212.308868,365.967834 
	C209.567322,385.724640 206.602783,405.453522 204.139435,425.244843 
	C202.700806,436.803375 202.024826,448.458069 201.063980,460.074341 
	C200.576477,465.968018 201.627884,466.796112 207.117172,465.065674 
	C209.497421,464.315308 211.865662,463.526855 214.970703,462.449646 
z"/>
<path fill="#FFFFFF" opacity="1.000000" stroke="none" 
	d="
M549.347778,483.367493 
	C557.181946,470.303650 564.821411,457.543457 571.561523,446.285431 
	C569.688965,477.777222 567.688782,511.417084 565.677490,545.242310 
	C551.912292,534.591370 538.255188,524.024109 524.713989,513.546570 
	C532.814697,503.643921 540.983948,493.657532 549.347778,483.367493 
z"/>
<path fill="#FFFFFF" opacity="1.000000" stroke="none" 
	d="
M894.013062,633.994507 
	C915.663208,638.335938 937.007751,642.129089 958.052063,647.174194 
	C974.649475,651.153320 990.829102,656.596802 1005.264160,666.416809 
	C1014.406067,672.635925 1016.160217,681.493896 1011.934021,691.187927 
	C1006.407166,703.865356 996.668152,712.715576 985.516479,720.248962 
	C966.885864,732.834656 946.173767,740.896729 924.980774,747.882202 
	C897.401123,756.972778 869.168152,763.364258 840.541809,768.049866 
	C825.552856,770.503296 810.554932,772.997498 795.481140,774.807556 
	C782.515869,776.364502 769.435791,776.960266 756.409424,778.017273 
	C753.180359,778.279236 749.962708,778.681641 746.629272,779.031067 
	C746.337463,777.854187 746.049438,777.232239 746.048340,776.609741 
	C746.015015,756.785645 745.913086,736.960754 746.045593,717.137573 
	C746.101013,708.849426 746.881104,700.564880 746.888855,692.278259 
	C746.891968,688.924011 748.396484,687.514893 751.092957,686.457153 
	C773.489990,677.671692 795.961731,669.068604 818.240112,659.991272 
	C839.138306,651.476318 859.733337,642.211609 880.699219,633.874084 
	C884.393127,632.405090 889.255249,633.873962 894.013062,633.994507 
z"/>
<path fill="#FFFFFF" opacity="1.000000" stroke="none" 
	d="
M769.133667,448.186768 
	C769.800049,442.667725 770.441528,437.589874 770.966736,432.500000 
	C773.002563,412.771332 774.911743,393.028900 777.089844,373.316101 
	C777.522461,369.401154 778.676453,365.501709 780.017700,361.782623 
	C780.561951,360.273315 782.360046,358.401337 783.819885,358.171814 
	C792.137939,356.863953 800.503357,355.430298 808.894653,355.096771 
	C833.290649,354.127136 857.703613,353.303314 882.115540,353.100952 
	C903.563538,352.923126 925.019897,353.621857 946.471069,354.016083 
	C954.597107,354.165436 957.384766,358.111053 952.933716,364.575684 
	C948.704346,370.718262 943.415955,376.513489 937.509583,381.050964 
	C916.240234,397.390930 891.955505,408.444305 867.217896,418.195129 
	C836.495850,430.304871 805.334961,441.301666 774.355042,452.756134 
	C772.985840,453.262390 771.531860,453.539429 769.364441,454.127533 
	C769.246826,452.033112 769.151062,450.327789 769.133667,448.186768 
z"/>
<path fill="#EAEBF3" opacity="1.000000" stroke="none" 
	d="
M409.718048,650.315979 
	C422.774536,654.572327 435.270813,659.071838 446.257294,666.930237 
	C457.638855,675.071228 460.494171,683.798279 455.528534,696.804260 
	C450.129181,710.946289 439.579437,720.753418 427.454163,729.065369 
	C405.218018,744.308594 380.266663,753.491089 354.689392,761.145569 
	C312.303070,773.830505 268.937988,781.558289 224.980209,786.061157 
	C211.732391,787.418152 198.412979,788.063049 185.145096,789.244446 
	C180.377472,789.668945 178.642822,788.073914 178.726501,783.173828 
	C179.238480,753.196655 179.454361,723.214233 180.044464,693.239075 
	C180.080673,691.399231 182.076645,688.653442 183.823746,687.929871 
	C228.385864,669.473999 273.027527,651.209961 317.700836,633.024170 
	C319.737488,632.195068 322.326416,631.789734 324.442108,632.228455 
	C352.764465,638.102844 381.048279,644.162964 409.718048,650.315979 
M429.990356,720.512146 
	C438.637939,714.007141 445.551300,706.071777 449.952362,696.105896 
	C454.202393,686.481934 452.403809,677.602844 443.190369,671.367065 
	C428.733215,661.582275 412.555634,656.156555 395.955078,652.152588 
	C375.394409,647.193481 354.567657,643.320557 333.814453,639.186096 
	C326.917969,637.812134 320.378204,637.348694 313.223541,640.615784 
	C291.338409,650.609253 269.058655,659.759460 246.777542,668.858459 
	C227.729477,676.637146 208.472000,683.903564 189.295609,691.366882 
	C186.419724,692.486084 184.863449,694.000732 184.877625,697.558594 
	C184.910675,705.845276 184.104523,714.132629 184.042496,722.422852 
	C183.899124,741.583923 184.063843,760.747375 183.931702,779.908630 
	C183.908173,783.321899 185.153366,784.299683 188.344009,783.974304 
	C201.826630,782.599121 215.336502,781.476501 228.804031,779.971741 
	C242.596527,778.430847 256.445129,777.090210 270.102692,774.707581 
	C297.647186,769.902344 325.078430,764.556152 351.880829,756.269409 
	C379.281494,747.797729 406.129364,738.320984 429.990356,720.512146 
z"/>
<path fill="#EAEBF3" opacity="1.000000" stroke="none" 
	d="
M214.605011,462.602661 
	C211.865662,463.526855 209.497421,464.315308 207.117172,465.065674 
	C201.627884,466.796112 200.576477,465.968018 201.063980,460.074341 
	C202.024826,448.458069 202.700806,436.803375 204.139435,425.244843 
	C206.602783,405.453522 209.567322,385.724640 212.308868,365.967834 
	C213.011932,360.901306 215.543671,358.589569 220.957932,357.679291 
	C253.154236,352.266418 285.537720,351.394073 318.072937,352.370758 
	C336.042603,352.910217 354.031464,352.784729 372.009888,353.071655 
	C376.992462,353.151184 382.013062,353.313385 386.938721,353.996521 
	C398.057556,355.538635 401.960144,362.432678 395.921936,371.910095 
	C391.557953,378.759674 385.652863,385.094818 379.205475,390.064056 
	C357.677063,406.656891 333.106689,418.004578 308.021332,427.895325 
	C277.247162,440.028992 246.008545,450.984711 214.605011,462.602661 
M213.485748,388.022705 
	C211.191101,411.540222 208.896454,435.057770 206.524429,459.368347 
	C209.404938,458.585297 210.695541,458.338104 211.911453,457.888763 
	C243.049057,446.382385 274.369354,435.338593 305.249786,423.178192 
	C329.990784,413.435425 354.259552,402.358093 375.546570,386.039795 
	C381.339447,381.599121 386.628052,376.017395 390.742950,369.998688 
	C395.423065,363.153290 392.741821,359.166595 384.434814,359.014893 
	C362.983551,358.623260 341.527039,357.917542 320.079102,358.100098 
	C294.500702,358.317810 268.922058,359.144775 243.358902,360.113617 
	C235.967545,360.393738 228.607620,361.946411 221.287125,363.224091 
	C220.042221,363.441376 218.381302,365.060120 218.086578,366.308563 
	C216.454391,373.222839 215.185349,380.222809 213.485748,388.022705 
z"/>
<path fill="#FFFFFF" opacity="1.000000" stroke="none" 
	d="
M429.729431,720.760437 
	C406.129364,738.320984 379.281494,747.797729 351.880829,756.269409 
	C325.078430,764.556152 297.647186,769.902344 270.102692,774.707581 
	C256.445129,777.090210 242.596527,778.430847 228.804031,779.971741 
	C215.336502,781.476501 201.826630,782.599121 188.344009,783.974304 
	C185.153366,784.299683 183.908173,783.321899 183.931702,779.908630 
	C184.063843,760.747375 183.899124,741.583923 184.042496,722.422852 
	C184.104523,714.132629 184.910675,705.845276 184.877625,697.558594 
	C184.863449,694.000732 186.419724,692.486084 189.295609,691.366882 
	C208.472000,683.903564 227.729477,676.637146 246.777542,668.858459 
	C269.058655,659.759460 291.338409,650.609253 313.223541,640.615784 
	C320.378204,637.348694 326.917969,637.812134 333.814453,639.186096 
	C354.567657,643.320557 375.394409,647.193481 395.955078,652.152588 
	C412.555634,656.156555 428.733215,661.582275 443.190369,671.367065 
	C452.403809,677.602844 454.202393,686.481934 449.952362,696.105896 
	C445.551300,706.071777 438.637939,714.007141 429.729431,720.760437 
z"/>
<path fill="#FFFFFF" opacity="1.000000" stroke="none" 
	d="
M213.638840,387.608093 
	C215.185349,380.222809 216.454391,373.222839 218.086578,366.308563 
	C218.381302,365.060120 220.042221,363.441376 221.287125,363.224091 
	C228.607620,361.946411 235.967545,360.393738 243.358902,360.113617 
	C268.922058,359.144775 294.500702,358.317810 320.079102,358.100098 
	C341.527039,357.917542 362.983551,358.623260 384.434814,359.014893 
	C392.741821,359.166595 395.423065,363.153290 390.742950,369.998688 
	C386.628052,376.017395 381.339447,381.599121 375.546570,386.039795 
	C354.259552,402.358093 329.990784,413.435425 305.249786,423.178192 
	C274.369354,435.338593 243.049057,446.382385 211.911453,457.888763 
	C210.695541,458.338104 209.404938,458.585297 206.524429,459.368347 
	C208.896454,435.057770 211.191101,411.540222 213.638840,387.608093 
z"/>
</svg>